<mxfile host="app.diagrams.net" modified="2023-09-20T19:54:33.343Z" agent="Mozilla/5.0 (Windows NT 10.0; Win64; x64) AppleWebKit/537.36 (KHTML, like Gecko) Chrome/116.0.0.0 Safari/537.36" etag="iSHzNfZblELBRc2HGGXj" version="21.6.8" type="github">
  <diagram name="PÃ¡gina-1" id="x8MUQnhP3IldwEoLmFX_">
    <mxGraphModel dx="874" dy="446" grid="1" gridSize="10" guides="1" tooltips="1" connect="1" arrows="1" fold="1" page="1" pageScale="1" pageWidth="827" pageHeight="1169" math="0" shadow="0">
      <root>
        <mxCell id="0" />
        <mxCell id="1" parent="0" />
        <mxCell id="nJzOD07PDaq_rWd_04Af-46" style="edgeStyle=orthogonalEdgeStyle;rounded=0;orthogonalLoop=1;jettySize=auto;html=1;exitX=0.5;exitY=1;exitDx=0;exitDy=0;" parent="1" source="nJzOD07PDaq_rWd_04Af-37" target="nJzOD07PDaq_rWd_04Af-42" edge="1">
          <mxGeometry relative="1" as="geometry" />
        </mxCell>
        <mxCell id="nJzOD07PDaq_rWd_04Af-37" value="START" style="rounded=1;whiteSpace=wrap;html=1;" parent="1" vertex="1">
          <mxGeometry x="320" y="40" width="120" height="80" as="geometry" />
        </mxCell>
        <mxCell id="nJzOD07PDaq_rWd_04Af-47" style="edgeStyle=orthogonalEdgeStyle;rounded=0;orthogonalLoop=1;jettySize=auto;html=1;exitX=0.5;exitY=1;exitDx=0;exitDy=0;" parent="1" source="nJzOD07PDaq_rWd_04Af-42" target="nJzOD07PDaq_rWd_04Af-43" edge="1">
          <mxGeometry relative="1" as="geometry" />
        </mxCell>
        <mxCell id="nJzOD07PDaq_rWd_04Af-42" value="Generate random word" style="rounded=1;whiteSpace=wrap;html=1;" parent="1" vertex="1">
          <mxGeometry x="320" y="160" width="120" height="60" as="geometry" />
        </mxCell>
        <mxCell id="nJzOD07PDaq_rWd_04Af-48" style="edgeStyle=orthogonalEdgeStyle;rounded=0;orthogonalLoop=1;jettySize=auto;html=1;exitX=0.5;exitY=1;exitDx=0;exitDy=0;" parent="1" source="nJzOD07PDaq_rWd_04Af-43" target="nJzOD07PDaq_rWd_04Af-44" edge="1">
          <mxGeometry relative="1" as="geometry" />
        </mxCell>
        <mxCell id="nJzOD07PDaq_rWd_04Af-43" value="Generate as many blanks as letters in word" style="rounded=1;whiteSpace=wrap;html=1;" parent="1" vertex="1">
          <mxGeometry x="320" y="280" width="120" height="60" as="geometry" />
        </mxCell>
        <mxCell id="nJzOD07PDaq_rWd_04Af-49" style="edgeStyle=orthogonalEdgeStyle;rounded=0;orthogonalLoop=1;jettySize=auto;html=1;exitX=0.5;exitY=1;exitDx=0;exitDy=0;" parent="1" source="nJzOD07PDaq_rWd_04Af-44" target="nJzOD07PDaq_rWd_04Af-45" edge="1">
          <mxGeometry relative="1" as="geometry" />
        </mxCell>
        <mxCell id="nJzOD07PDaq_rWd_04Af-44" value="Ask the user to guess a letter" style="rounded=1;whiteSpace=wrap;html=1;" parent="1" vertex="1">
          <mxGeometry x="320" y="400" width="120" height="60" as="geometry" />
        </mxCell>
        <mxCell id="nJzOD07PDaq_rWd_04Af-50" value="&lt;font style=&quot;font-size: 14px;&quot;&gt;yes&lt;/font&gt;" style="edgeStyle=orthogonalEdgeStyle;rounded=0;orthogonalLoop=1;jettySize=auto;html=1;exitX=0;exitY=0.5;exitDx=0;exitDy=0;entryX=0.5;entryY=0;entryDx=0;entryDy=0;" parent="1" source="nJzOD07PDaq_rWd_04Af-45" target="nJzOD07PDaq_rWd_04Af-52" edge="1">
          <mxGeometry relative="1" as="geometry">
            <mxPoint x="240" y="640" as="targetPoint" />
          </mxGeometry>
        </mxCell>
        <mxCell id="nJzOD07PDaq_rWd_04Af-54" value="&lt;font style=&quot;font-size: 14px;&quot;&gt;no&lt;/font&gt;" style="edgeStyle=orthogonalEdgeStyle;rounded=0;orthogonalLoop=1;jettySize=auto;html=1;exitX=1;exitY=0.5;exitDx=0;exitDy=0;" parent="1" source="nJzOD07PDaq_rWd_04Af-45" target="nJzOD07PDaq_rWd_04Af-55" edge="1">
          <mxGeometry relative="1" as="geometry">
            <mxPoint x="520" y="640" as="targetPoint" />
          </mxGeometry>
        </mxCell>
        <mxCell id="nJzOD07PDaq_rWd_04Af-45" value="&lt;font style=&quot;font-size: 8px;&quot;&gt;Is the guessed letter in word?&lt;/font&gt;" style="rhombus;whiteSpace=wrap;html=1;" parent="1" vertex="1">
          <mxGeometry x="320" y="520" width="120" height="80" as="geometry" />
        </mxCell>
        <mxCell id="gy3QaPInti9UsdY6pWss-3" style="edgeStyle=orthogonalEdgeStyle;rounded=0;orthogonalLoop=1;jettySize=auto;html=1;exitX=0.5;exitY=1;exitDx=0;exitDy=0;" edge="1" parent="1" source="nJzOD07PDaq_rWd_04Af-52" target="gy3QaPInti9UsdY6pWss-1">
          <mxGeometry relative="1" as="geometry" />
        </mxCell>
        <mxCell id="nJzOD07PDaq_rWd_04Af-52" value="Replace the blank with the letter" style="rounded=1;whiteSpace=wrap;html=1;" parent="1" vertex="1">
          <mxGeometry x="190" y="640" width="100" height="50" as="geometry" />
        </mxCell>
        <mxCell id="gy3QaPInti9UsdY6pWss-4" style="edgeStyle=orthogonalEdgeStyle;rounded=0;orthogonalLoop=1;jettySize=auto;html=1;exitX=0.5;exitY=1;exitDx=0;exitDy=0;" edge="1" parent="1" source="nJzOD07PDaq_rWd_04Af-55" target="gy3QaPInti9UsdY6pWss-2">
          <mxGeometry relative="1" as="geometry" />
        </mxCell>
        <mxCell id="nJzOD07PDaq_rWd_04Af-55" value="Lose a life" style="rounded=1;whiteSpace=wrap;html=1;" parent="1" vertex="1">
          <mxGeometry x="470" y="640" width="100" height="50" as="geometry" />
        </mxCell>
        <mxCell id="gy3QaPInti9UsdY6pWss-6" style="edgeStyle=orthogonalEdgeStyle;rounded=0;orthogonalLoop=1;jettySize=auto;html=1;exitX=0;exitY=0.5;exitDx=0;exitDy=0;entryX=0;entryY=0.5;entryDx=0;entryDy=0;" edge="1" parent="1" source="gy3QaPInti9UsdY6pWss-1" target="nJzOD07PDaq_rWd_04Af-44">
          <mxGeometry relative="1" as="geometry" />
        </mxCell>
        <mxCell id="gy3QaPInti9UsdY6pWss-11" value="no" style="edgeLabel;html=1;align=center;verticalAlign=middle;resizable=0;points=[];" vertex="1" connectable="0" parent="gy3QaPInti9UsdY6pWss-6">
          <mxGeometry x="-0.2655" relative="1" as="geometry">
            <mxPoint y="2" as="offset" />
          </mxGeometry>
        </mxCell>
        <mxCell id="gy3QaPInti9UsdY6pWss-12" style="edgeStyle=orthogonalEdgeStyle;rounded=0;orthogonalLoop=1;jettySize=auto;html=1;exitX=0.5;exitY=1;exitDx=0;exitDy=0;" edge="1" parent="1" source="gy3QaPInti9UsdY6pWss-1">
          <mxGeometry relative="1" as="geometry">
            <mxPoint x="380" y="930" as="targetPoint" />
          </mxGeometry>
        </mxCell>
        <mxCell id="gy3QaPInti9UsdY6pWss-15" value="yes" style="edgeLabel;html=1;align=center;verticalAlign=middle;resizable=0;points=[];" vertex="1" connectable="0" parent="gy3QaPInti9UsdY6pWss-12">
          <mxGeometry x="-0.5609" relative="1" as="geometry">
            <mxPoint as="offset" />
          </mxGeometry>
        </mxCell>
        <mxCell id="gy3QaPInti9UsdY6pWss-1" value="All blanks filled?" style="rhombus;whiteSpace=wrap;html=1;" vertex="1" parent="1">
          <mxGeometry x="160" y="740" width="160" height="80" as="geometry" />
        </mxCell>
        <mxCell id="gy3QaPInti9UsdY6pWss-5" style="edgeStyle=orthogonalEdgeStyle;rounded=0;orthogonalLoop=1;jettySize=auto;html=1;exitX=1;exitY=0.5;exitDx=0;exitDy=0;entryX=1;entryY=0.5;entryDx=0;entryDy=0;" edge="1" parent="1" source="gy3QaPInti9UsdY6pWss-2" target="nJzOD07PDaq_rWd_04Af-44">
          <mxGeometry relative="1" as="geometry" />
        </mxCell>
        <mxCell id="gy3QaPInti9UsdY6pWss-7" value="no" style="edgeLabel;html=1;align=center;verticalAlign=middle;resizable=0;points=[];" vertex="1" connectable="0" parent="gy3QaPInti9UsdY6pWss-5">
          <mxGeometry x="0.2218" y="-2" relative="1" as="geometry">
            <mxPoint x="-2" y="136" as="offset" />
          </mxGeometry>
        </mxCell>
        <mxCell id="gy3QaPInti9UsdY6pWss-10" value="Text" style="edgeLabel;html=1;align=center;verticalAlign=middle;resizable=0;points=[];" vertex="1" connectable="0" parent="gy3QaPInti9UsdY6pWss-5">
          <mxGeometry x="-0.2982" y="-5" relative="1" as="geometry">
            <mxPoint x="125" y="-97" as="offset" />
          </mxGeometry>
        </mxCell>
        <mxCell id="gy3QaPInti9UsdY6pWss-13" style="edgeStyle=orthogonalEdgeStyle;rounded=0;orthogonalLoop=1;jettySize=auto;html=1;exitX=0.5;exitY=1;exitDx=0;exitDy=0;" edge="1" parent="1" source="gy3QaPInti9UsdY6pWss-2">
          <mxGeometry relative="1" as="geometry">
            <mxPoint x="380" y="930" as="targetPoint" />
          </mxGeometry>
        </mxCell>
        <mxCell id="gy3QaPInti9UsdY6pWss-14" value="yes" style="edgeLabel;html=1;align=center;verticalAlign=middle;resizable=0;points=[];" vertex="1" connectable="0" parent="gy3QaPInti9UsdY6pWss-13">
          <mxGeometry x="-0.5591" relative="1" as="geometry">
            <mxPoint as="offset" />
          </mxGeometry>
        </mxCell>
        <mxCell id="gy3QaPInti9UsdY6pWss-2" value="Out of lives?" style="rhombus;whiteSpace=wrap;html=1;" vertex="1" parent="1">
          <mxGeometry x="440" y="740" width="160" height="80" as="geometry" />
        </mxCell>
        <mxCell id="gy3QaPInti9UsdY6pWss-16" value="Game over" style="rounded=0;whiteSpace=wrap;html=1;" vertex="1" parent="1">
          <mxGeometry x="320" y="930" width="120" height="60" as="geometry" />
        </mxCell>
      </root>
    </mxGraphModel>
  </diagram>
</mxfile>
